HIERARCHY
ROOT Hips
{
     OFFSET 1.88212 96.90440 -13.34250
     CHANNELS 6 Xposition Yposition Zposition Zrotation Xrotation Yrotation
     JOINT Spine
     {
          OFFSET 0.00000 11.89050 0.00000
          CHANNELS 3 Zrotation Xrotation Yrotation
          JOINT Spine1
          {
               OFFSET -0.00000 25.65740 0.12766
               CHANNELS 3 Zrotation Xrotation Yrotation
               JOINT HEad
               {
                    OFFSET 0.00000 8.73416 0.01134
                    CHANNELS 3 Zrotation Xrotation Yrotation
                    End Site
                    {
                         OFFSET -0.29000 12.77420 2.51395
                    }
               }
               JOINT LeftShoulder1
               {
                    OFFSET 8.99000 -0.36225 -0.22000
                    CHANNELS 3 Zrotation Xrotation Yrotation
                    JOINT LeftArm
                    {
                         OFFSET 10.28270 -0.00338 0.32212
                         CHANNELS 3 Zrotation Xrotation Yrotation
                         JOINT LeftForeArm
                         {
                              OFFSET 32.76690 0.09914 -1.42434
                              CHANNELS 3 Zrotation Xrotation Yrotation
                              JOINT LeftHand
                              {
                                   OFFSET 27.56430 0.08536 1.02216
                                   CHANNELS 3 Zrotation Xrotation Yrotation
                                   End Site
                                   {
                                        OFFSET 16.74430 -0.60000 1.50291
                                   }
                              }
                         }
                    }
               }
               JOINT RightShoulder
               {
                    OFFSET -8.99000 -0.36225 -0.22000
                    CHANNELS 3 Zrotation Xrotation Yrotation
                    JOINT RightArm
                    {
                         OFFSET -10.28270 -0.00338 0.32212
                         CHANNELS 3 Zrotation Xrotation Yrotation
                         JOINT RightForeArm
                         {
                              OFFSET -32.89710 0.09914 -1.42434
                              CHANNELS 3 Zrotation Xrotation Yrotation
                              JOINT RightHand
                              {
                                   OFFSET -27.49210 0.08536 1.02216
                                   CHANNELS 3 Zrotation Xrotation Yrotation
                                   End Site
                                   {
                                        OFFSET -16.63120 -0.60000 1.50291
                                   }
                              }
                         }
                    }
               }
          }
     }
     JOINT LeftUpLeg
     {
          OFFSET 8.94580 -8.66707 0.10165
          CHANNELS 3 Zrotation Xrotation Yrotation
          JOINT LeftLeg
          {
               OFFSET 0.00000 -44.42270 1.37270
               CHANNELS 3 Zrotation Xrotation Yrotation
               JOINT LeftFoot
               {
                    OFFSET -0.25355 -42.09240 -1.46059
                    CHANNELS 3 Zrotation Xrotation Yrotation
                    JOINT LeftToes
                    {
                         OFFSET -0.04000 -4.41509 8.49910
                         CHANNELS 3 Zrotation Xrotation Yrotation
                         End Site
                         {
                              OFFSET 0.08000 -0.04745 9.77979
                         }
                    }
               }
          }
     }
     JOINT RightUpLeg
     {
          OFFSET -8.94580 -8.66707 0.10165
          CHANNELS 3 Zrotation Xrotation Yrotation
          JOINT RightLeg
          {
               OFFSET 0.00000 -44.42270 1.37270
               CHANNELS 3 Zrotation Xrotation Yrotation
               JOINT RightFoot
               {
                    OFFSET 0.25355 -42.09240 -1.46059
                    CHANNELS 3 Zrotation Xrotation Yrotation
                    JOINT RightToes
                    {
                         OFFSET 0.04000 -4.41509 8.49910
                         CHANNELS 3 Zrotation Xrotation Yrotation
                         End Site
                         {
                              OFFSET -0.08000 -0.13745 9.77979
                         }
                    }
               }
          }
     }
}
MOTION
Frames: 13
Frame Time: 0.01667
42.45879 92.41840 -19.64587 6.02250 12.99747 156.68439 -10.92139 28.64620 -10.01077 -0.00448 0.01280 0.03141 -19.21262 20.44316 26.40838 -2.09904 7.06477 13.52814 -129.18834 -65.39563 -106.25294 -40.76043 57.86351 -83.15672 14.05771 11.36625 -6.91344 10.43038 10.99034 14.41870 89.41457 -5.58483 71.38110 7.90980 32.54278 87.90020 20.40279 14.17327 10.18764 15.75172 -8.38711 -22.93890 -26.08142 18.68479 61.26179 -5.74255 0.00529 -0.00648 4.05838 -7.39346 -56.78162 -24.21427 30.50558 18.83131 31.15526 -10.78183 -46.46627 -30.03933 0.00846 -0.00874 17.91425 -27.17589 13.96139 
41.74004 92.43313 -20.11732 5.97937 12.46750 155.75911 -10.85962 27.83929 -11.21961 -0.00430 0.01257 0.02871 -23.61584 22.15525 31.29807 -2.48709 7.19462 14.66436 -131.86740 -66.00683 -108.68046 -39.50118 58.60834 -83.66395 14.18565 11.11785 -6.37793 10.54287 11.43023 15.54359 88.24184 -4.50200 71.64079 7.34356 31.74511 88.25533 19.29493 13.73553 10.23734 17.26530 -8.36486 -23.72390 -28.57523 16.66504 63.47515 -5.35184 0.00001 -0.00127 4.52253 -8.89271 -56.65124 -24.66181 30.52197 18.32291 30.29688 -12.11314 -46.74612 -29.28785 0.01560 -0.00872 17.75735 -26.00700 16.65789 
41.00426 92.40885 -20.63487 5.96879 11.94652 154.85100 -10.77368 27.09579 -11.99363 -0.00419 0.01222 0.02580 -27.45989 23.36101 35.32316 -2.79794 7.32407 15.41230 -134.31877 -66.45775 -110.92135 -38.19053 59.26352 -84.23257 14.46416 10.46230 -6.94403 10.71174 11.80059 16.23054 87.15686 -3.64831 71.85964 6.73113 30.99781 88.70934 19.42027 14.12916 10.14790 18.39428 -8.24435 -24.35409 -30.80255 14.52212 65.41468 -4.78776 -0.00078 0.00194 5.17800 -10.62546 -56.36102 -25.16159 29.42670 17.19885 30.20035 -11.65959 -46.52029 -28.28020 0.01466 -0.00741 17.09679 -25.73467 17.90459 
40.23787 92.36806 -21.16770 5.98961 11.43766 153.96051 -10.66402 26.42112 -12.37984 -0.00410 0.01191 0.02290 -30.66055 24.23134 38.48922 -3.03382 7.45654 15.81037 -136.37070 -66.76769 -112.81155 -36.79128 59.78485 -84.87392 14.57867 10.19482 -6.57465 10.92983 12.10138 16.54816 86.19120 -3.01106 72.03724 6.11338 30.31696 89.25969 18.64454 13.72259 10.33225 19.20067 -8.04714 -24.82573 -32.63622 12.46367 67.07187 -4.24192 -0.00025 0.00309 5.91925 -12.45994 -56.23334 -25.74602 27.38568 15.61243 30.75113 -9.55871 -45.89681 -27.00265 0.01139 -0.00430 16.29527 -25.67853 19.09120 
39.42731 92.32479 -21.69898 6.03172 10.93717 153.08682 -10.48833 25.45318 -12.17377 -0.00536 0.01518 0.01754 -31.79882 25.16031 39.38190 -3.28324 7.94290 15.62473 -137.97528 -66.96107 -114.30044 -35.28775 60.16710 -85.60052 14.75070 9.70734 -6.86685 11.14569 12.61238 16.23421 85.36165 -2.56703 72.17928 5.50688 29.73388 89.88344 18.64642 13.80187 10.33044 19.75062 -7.80637 -25.12683 -34.03675 10.60374 68.46631 -3.81629 0.00044 0.00262 6.68149 -14.23567 -56.14083 -26.48134 24.54781 13.71988 31.83242 -5.97927 -45.03476 -25.46114 0.00620 0.00124 15.31791 -26.20791 19.67695 
38.58648 92.28365 -22.23656 6.08782 10.45354 152.24496 -10.31146 24.64409 -11.72302 -0.00514 0.01490 0.01496 -30.93883 25.69589 38.33104 -3.43676 8.35269 15.22541 -139.07472 -67.03739 -115.31483 -33.71682 60.42019 -86.38159 14.82837 9.47573 -6.60403 11.42103 12.98877 15.72797 84.66647 -2.28364 72.30347 4.92970 29.23581 90.56004 18.12933 13.44486 10.50669 20.09966 -7.52978 -25.26566 -35.02868 8.98917 69.62104 -3.55666 0.00092 0.00144 7.43305 -15.87822 -56.16272 -27.11315 22.04440 11.96625 32.78918 -2.31448 -43.98049 -23.74388 0.00177 0.00661 14.25380 -26.90634 20.06079 
37.74291 92.24740 -22.79327 6.15466 9.99701 151.44777 -10.13089 23.99194 -11.08191 -0.00469 0.01433 0.01265 -29.82804 26.11456 36.96157 -3.50424 8.68812 14.66604 -139.71158 -67.01865 -115.88750 -32.13793 60.56260 -87.20463 14.93912 9.14186 -6.74758 11.75205 13.24287 15.07770 84.09240 -2.12706 72.41843 4.36517 28.82716 91.28409 18.10056 13.41600 10.50922 20.29167 -7.21300 -25.25316 -35.66640 7.64030 70.55653 -3.48061 0.00119 0.00031 8.15782 -17.36183 -56.25587 -27.67553 19.78287 10.36514 33.57511 1.26341 -42.80180 -21.93246 -0.00156 0.00900 13.08651 -27.63538 20.15255 
36.92114 92.21992 -23.37115 6.23188 9.57732 150.70418 -9.94586 23.48940 -10.29661 -0.00426 0.01366 0.01046 -28.52044 26.39994 35.34610 -3.49729 8.95662 13.98529 -139.99275 -66.92708 -116.12116 -30.62043 60.62043 -88.02847 14.99731 8.98881 -6.56014 12.12549 13.38964 14.32067 83.63056 -2.06407 72.53705 3.79225 28.49277 92.05537 17.77314 13.16845 10.62094 20.35524 -6.85654 -25.10258 -36.01133 6.56369 71.29369 -3.58549 0.00136 -0.00053 8.85621 -18.68560 -56.42396 -28.18190 17.70573 8.92272 34.16513 4.62277 -41.53248 -20.08117 -0.00406 0.00839 11.80486 -28.19498 20.06214 
36.14751 92.21725 -23.98363 6.32952 9.21212 150.03804 -9.74761 23.13882 -9.42439 -0.00374 0.01295 0.00830 -27.07364 26.54639 33.55877 -3.42726 9.16954 13.22376 -140.05467 -66.78112 -116.14760 -29.23477 60.62795 -88.82413 15.07658 8.80447 -6.61892 12.52789 13.44826 13.48319 83.27336 -2.05586 72.66486 3.18197 28.23098 92.87960 17.74820 13.12035 10.59253 20.30669 -6.44400 -24.85270 -36.11277 5.74701 71.84392 -3.85921 0.00150 -0.00107 9.52596 -19.85476 -56.64247 -28.64000 15.51867 7.63239 36.09582 8.39328 -38.76545 -22.09790 0.10211 0.09224 12.29415 -29.59937 17.37562 
35.43455 92.24474 -24.61499 6.45259 8.90304 149.44594 -9.53701 22.92136 -8.49050 -0.00323 0.01210 0.00624 -25.54355 26.55846 31.66989 -3.30460 9.33976 12.41905 -140.02748 -66.59062 -116.09661 -28.02705 60.61857 -89.56461 15.13603 8.76101 -6.47907 12.93349 13.43630 12.58958 83.02559 -2.07484 72.81131 2.52473 28.02809 93.75935 17.54594 12.93343 10.63121 20.16294 -5.99577 -24.51298 -36.01396 5.17110 72.23004 -4.27212 0.00172 -0.00131 10.17079 -20.85962 -56.90459 -29.07126 13.35317 6.50968 37.39992 11.59883 -36.44772 -24.03267 0.05023 0.00746 12.99210 -29.94491 15.24896 
34.77758 92.31469 -25.24298 6.60345 8.65140 148.94032 -9.31059 22.82273 -7.53231 -0.00278 0.01121 0.00438 -23.98046 26.44808 29.74090 -3.14237 9.47698 11.60375 -139.99944 -66.35696 -116.06073 -27.00184 60.61752 -90.25521 15.22470 8.72298 -6.48117 13.32126 13.36976 11.65954 82.88954 -2.09915 72.98290 1.82076 27.87819 94.69382 17.52419 12.83944 10.55380 19.93832 -5.52523 -24.10757 -35.74379 4.80074 72.46370 -4.79479 0.00188 -0.00129 10.79764 -21.68761 -57.19757 -29.45479 11.18006 5.54706 38.62924 13.95210 -34.74899 -23.31177 0.00102 -0.00381 10.78340 -29.58685 13.67942 
34.16520 92.43816 -25.84233 6.78322 8.44915 148.52618 -9.06366 22.82418 -6.57572 -0.00243 0.01038 0.00283 -22.42545 26.23139 27.82102 -2.95831 9.58384 10.80156 -140.00175 -66.07329 -116.08170 -26.12460 60.63959 -90.91359 15.31962 8.77547 -6.34996 13.68031 13.25964 10.70928 82.85826 -2.11882 73.18503 1.08645 27.76957 95.67688 17.39541 12.64572 10.50170 19.64939 -5.04742 -23.65008 -35.32216 4.60235 72.55222 -5.40205 0.00196 -0.00102 11.41821 -22.32790 -57.50562 -29.79539 9.06294 4.74732 39.75842 15.91209 -33.52994 -24.51894 0.02993 0.00663 10.57421 -28.93369 12.51382 
33.58852 92.61717 -26.39059 6.98993 8.28468 148.20610 -8.79331 22.90666 -5.63946 -0.00222 0.00966 0.00164 -20.90917 25.92625 25.94652 -2.77126 9.65714 10.02933 -140.01627 -65.72851 -116.15192 -25.34026 60.68982 -91.56882 15.44192 8.81880 -6.28402 14.01388 13.11257 9.75636 82.91193 -2.13594 73.41783 0.33996 27.69589 96.69491 17.37159 12.50038 10.35465 19.31150 -4.58239 -23.14804 -34.76281 4.54674 72.50017 -6.07162 0.00196 -0.00056 12.04432 -22.76989 -57.80662 -30.08927 7.05754 4.11214 40.83617 17.59677 -32.67629 -25.00389 0.02367 0.00626 9.75658 -28.21471 11.80902 
